<svg width="32" height="32" viewBox="0 0 32 32" fill="none" xmlns="http://www.w3.org/2000/svg">
  <defs>
    <linearGradient id="bagGradient" x1="0%" y1="0%" x2="100%" y2="100%">
      <stop offset="0%" style="stop-color:#0075F2"/>
      <stop offset="50%" style="stop-color:#2563eb"/>
      <stop offset="100%" style="stop-color:#7c3aed"/>
    </linearGradient>
    <linearGradient id="handleGradient" x1="0%" y1="0%" x2="100%" y2="0%">
      <stop offset="0%" style="stop-color:#0075F2"/>
      <stop offset="100%" style="stop-color:#7c3aed"/>
    </linearGradient>
  </defs>
  
  <!-- Shopping bag body -->
  <path d="M6 10C6 8.89543 6.89543 8 8 8H24C25.1046 8 26 8.89543 26 10V26C26 27.1046 25.1046 28 24 28H8C6.89543 28 6 27.1046 6 26V10Z" fill="url(#bagGradient)"/>
  
  <!-- Bag handle -->
  <path d="M11 8V7C11 4.23858 13.2386 2 16 2C18.7614 2 21 4.23858 21 7V8" stroke="url(#handleGradient)" stroke-width="2.5" stroke-linecap="round" fill="none"/>
  
  <!-- Letter O (stylized circle) -->
  <circle cx="16" cy="18" r="5" stroke="white" stroke-width="2.5" fill="none"/>
  
  <!-- Small shine/highlight -->
  <circle cx="12" cy="13" r="1.5" fill="white" fill-opacity="0.4"/>
</svg>

